<svg width="24" height="24" viewBox="0 0 24 24" fill="none" xmlns="http://www.w3.org/2000/svg">
    <path d="M12 .5C5.4.5 0 5.9 0 12.5c0 5.3 3.4 9.8 8.2 11.4.6.1.8-.3.8-.6v-2.1c-3.3.7-4-1.4-4-1.4-.5-1.1-1.2-1.5-1.2-1.5-.9-.6.1-.6.1-.6 1 .1 1.5 1 1.5 1 .9 1.5 2.3 1.1 2.8.9.1-.7.3-1.1.6-1.4-2.6-.3-5.3-1.3-5.3-5.8 0-1.3.5-2.4 1.2-3.3-.1-.3-.5-1.6.1-3.3 0 0 1-.3 3.3 1.2a11.5 11.5 0 016 0c2.3-1.5 3.3-1.2 3.3-1.2.6 1.7.2 3 .1 3.3.8.9 1.2 2 1.2 3.3 0 4.5-2.7 5.5-5.3 5.8.3.3.7.9.7 1.8v2.7c0 .3.2.7.8.6C20.6 22.3 24 17.8 24 12.5 24 5.9 18.6.5 12 .5z" fill="#181717"/>
</svg>
