<svg xmlns="http://www.w3.org/2000/svg" width="24" height="24" viewBox="0 0 24 24" fill="none">
    <path d="M22.23 0H1.77C.79 0 0 .77 0 1.72v20.56C0 23.23.79 24 1.77 24h20.46c.98 0 1.77-.77 1.77-1.72V1.72C24 .77 23.21 0 22.23 0zM7.06 20.45H3.56V9h3.5v11.45zM5.31 7.64c-1.12 0-1.81-.75-1.81-1.68 0-.96.72-1.68 1.86-1.68s1.81.72 1.81 1.68c0 .93-.69 1.68-1.85 1.68zm14.14 12.81h-3.5v-5.9c0-1.48-.53-2.48-1.85-2.48-1.01 0-1.61.68-1.88 1.34-.1.24-.13.57-.13.9v6.14h-3.5s.05-9.97 0-11h3.5v1.56c.47-.73 1.31-1.77 3.19-1.77 2.33 0 4.08 1.52 4.08 4.79v6.42z" fill="#0077B5"/>
</svg>
